<svg width="50" height="50" viewBox="0 0 50 50" fill="none" xmlns="http://www.w3.org/2000/svg">
<g clip-path="url(#clip0_34_56)">
<path d="M39.3769 8.73534L32.7732 11.8061L33.4204 12.5736L40.1699 11.2799L39.3769 8.73534Z" fill="white"/>
<path d="M34.2973 1.95558L30.9401 9.38411L31.3386 10.3322L37.1345 3.72078L34.2973 1.95558Z" fill="white"/>
<path d="M22.4711 6.19827C20.5189 6.78102 18.9533 8.90199 19.7398 11.8352C20.3069 13.9614 20.9555 17.1149 21.4385 20.0925C19.2785 17.0815 16.4824 13.784 14.7917 12.2061C12.4746 10.0444 10.0529 10.4738 8.69258 11.8559C7.21989 13.3561 6.82199 16.176 9.01127 18.4647C10.6264 20.1622 13.3524 23.0922 15.3778 25.4084C15.1805 25.3892 14.9819 25.3862 14.784 25.3995C13.7501 25.4678 12.8527 25.9586 12.1167 26.8546C11.0337 28.1772 10.7656 29.6699 11.2944 30.9909C10.4391 31.2304 9.67794 31.7265 9.11364 32.4124C7.90834 33.8143 8.19312 35.8669 9.854 37.7638C10.3428 38.3244 12.2675 39.9895 12.9752 40.4938C13.2505 40.6878 13.5388 40.8629 13.8379 41.0179C13.8636 41.0668 13.8937 41.1132 13.9281 41.1564C17.5509 45.604 24.6573 45.2726 29.519 43.0534C30.3137 42.694 31.0734 42.2616 31.7882 41.7618C35.4819 39.1453 36.4612 35.6512 36.6301 33.1756C36.8562 29.923 35.8232 27.1679 34.7799 25.6744C33.7367 24.1809 32.2387 23.1407 30.3852 22.6043C30.1754 18.5576 28.8475 12.4553 27.9104 9.60111C26.8817 6.45974 24.3706 5.63392 22.4711 6.19827ZM9.9867 13.1413C10.7113 12.4099 12.0242 12.129 13.5401 13.5439C15.5361 15.4096 19.2187 19.8864 21.2851 23.1228C20.0439 23.51 18.5145 24.1727 17.7995 25.4265C15.7472 22.9855 12.3388 19.303 10.326 17.2065C8.92023 15.7342 9.09177 14.0488 9.9867 13.1413ZM13.5293 28.0134C13.9376 27.5164 14.3871 27.2566 14.9048 27.2221C15.8617 27.1578 16.9739 27.8512 17.6988 28.5295L17.7014 28.5364C18.1001 29.4766 18.8212 30.1532 19.5169 30.3732C21.5491 31.9489 22.7612 33.482 22.8434 34.5939C22.8607 34.7895 22.8333 34.9865 22.7632 35.1699C22.6932 35.3534 22.5825 35.5186 22.4393 35.653C21.49 36.6407 20.6354 36.4779 19.0026 35.6992C18.4755 35.2944 15.28 32.8281 13.8064 31.3799C13.7624 31.3233 13.7123 31.2718 13.6571 31.2261L13.6355 31.2107C12.6362 30.2847 12.5977 29.1515 13.5293 28.0134ZM10.5018 33.5978C11.1184 32.8758 11.8943 32.574 12.6108 32.7578C14.2467 34.336 17.4977 36.841 17.9288 37.1706C18.6364 37.8445 18.6246 38.6215 17.8959 39.4911C16.923 40.6527 14.73 39.5022 14.0372 39.008C13.3891 38.5407 11.6009 36.9872 11.2263 36.5624C10.9529 36.2468 9.62184 34.6236 10.5018 33.5978ZM33.2844 26.7247C35.1362 29.3783 36.3406 36.2983 30.7252 40.2742C27.0879 42.8489 21.2835 43.695 17.5136 41.7431C18.2111 41.5993 18.838 41.2198 19.2888 40.6685C19.9869 39.834 20.3156 38.9448 20.2794 38.0949C21.3663 38.2907 22.5918 38.1231 23.7505 36.9256C24.0731 36.6054 24.3219 36.2187 24.4799 35.7926C24.6378 35.3664 24.701 34.9109 24.665 34.4579C24.5541 32.9926 23.5009 31.5515 22.267 30.3422C22.4415 30.3138 22.6169 30.2834 22.7944 30.2507C23.5779 30.0903 24.373 29.9938 25.1721 29.9621C26.1264 31.3119 27.9229 32.2907 28.9955 32.5107C29.2329 32.5592 29.4798 32.5114 29.682 32.3778C29.8842 32.2442 30.025 32.0358 30.0735 31.7984C30.122 31.561 30.0742 31.314 29.9406 31.1119C29.807 30.9097 29.5986 30.7689 29.3612 30.7204C28.5665 30.5583 27.0199 29.6465 26.5016 28.6434C26.4293 28.5033 26.3219 28.3843 26.1899 28.2981C26.0579 28.2119 25.9058 28.1614 25.7484 28.1516C24.5977 28.0774 23.4705 28.2768 22.4762 28.4495C21.5608 28.6111 20.6985 28.7636 20.1005 28.64C19.9248 28.5904 19.244 28.0743 19.2092 27.0544C19.1732 25.969 20.2792 25.2248 22.9091 24.5659C24.5609 24.1519 26.9979 23.7544 29.2255 24.2135C29.2779 24.23 29.3317 24.2417 29.3863 24.2483C30.901 24.5787 32.3009 25.3185 33.2844 26.7247ZM26.1762 10.175C27.0268 12.7637 28.2631 18.4045 28.5345 22.2489C26.9008 22.0976 25.2537 22.1925 23.6482 22.5304C23.1516 18.8624 22.2613 14.2131 21.5005 11.3643C20.9954 9.47217 21.9187 8.2666 22.9913 7.94808C24.1039 7.61912 25.518 8.17291 26.1762 10.175Z" fill="white"/>
</g>
<defs>
<clipPath id="clip0_34_56">
<rect width="38.334" height="37.0067" fill="white" transform="translate(0.563232 14.489) rotate(-20.7535)"/>
</clipPath>
</defs>
</svg>
