<svg width="45" height="46" viewBox="0 0 45 46" fill="none" xmlns="http://www.w3.org/2000/svg">
<g clip-path="url(#clip0_34_73)">
<path d="M1.5754 16.4312C2.44 16.5084 3.31123 16.43 4.149 16.1998C4.90615 15.998 5.61496 15.642 6.23238 15.1535C6.8498 14.665 7.36295 14.0543 7.74065 13.3583C8.43879 12.0346 8.63733 10.4979 8.29905 9.03623C10.2573 9.35238 12.3807 8.80104 13.9382 7.78896C14.8747 7.20295 15.6491 6.38505 16.1889 5.41201C17.251 6.35675 18.5977 6.90733 20.0085 6.97351C22.8575 7.13159 25.3931 5.53925 26.1585 3.10254C26.2507 2.80907 26.2242 2.49045 26.085 2.21677C25.9457 1.9431 25.705 1.73678 25.4159 1.64322C25.1267 1.54966 24.8128 1.57651 24.5432 1.71786C24.2735 1.85922 24.0702 2.10351 23.9781 2.39698C23.4785 3.99125 21.6647 4.73922 20.1319 4.6544C19.4899 4.6197 17.4728 4.32475 16.7131 2.08468C16.6597 1.80811 16.5854 1.53613 16.4909 1.27116C16.3946 0.993809 16.1978 0.764096 15.9406 0.628733C15.6834 0.49337 15.3851 0.462522 15.1063 0.54246C14.8269 0.620172 14.5872 0.802929 14.4359 1.05359C14.2845 1.30424 14.2329 1.60399 14.2915 1.8919C14.3407 2.15229 14.4041 2.40972 14.4814 2.66301C14.7093 4.32282 13.3418 5.42165 12.6998 5.84384C10.9391 6.98893 8.23257 7.29545 6.74729 5.82456C6.5458 5.59448 6.26251 5.45507 5.95974 5.437C5.65698 5.41892 5.35954 5.52366 5.13286 5.72817C4.90618 5.93268 4.76882 6.22021 4.75101 6.52751C4.7332 6.83481 4.8364 7.1367 5.03789 7.36678C6.25157 8.98996 6.50988 10.8194 5.73305 12.2614C5.0113 13.58 3.56211 14.2643 1.75964 14.1159C1.4574 14.0903 1.15753 14.1877 0.926004 14.3865C0.694478 14.5854 0.550258 14.8694 0.525071 15.1762C0.499884 15.483 0.595794 15.7873 0.791701 16.0223C0.987608 16.2573 1.26746 16.4037 1.56971 16.4292L1.5754 16.4312Z" fill="white"/>
<path d="M39.6894 20.0033C39.7463 19.0606 39.9686 15.1839 39.9059 13.0942C39.8185 10.1582 37.0569 8.44633 34.432 8.4791C33.0664 8.49838 31.6969 9.02852 30.7986 10.1196C29.6412 9.31042 28.2535 8.91069 26.8498 8.98225C24.7245 9.10563 22.4814 10.4358 22.1015 13.7188C21.34 13.2619 20.4814 12.9974 19.5982 12.9477C18.0141 12.8474 16.5365 13.393 15.5431 14.4456C14.8859 15.1396 14.168 16.3541 14.1471 18.3204C13.6554 18.1354 13.1396 18.025 12.6162 17.9927C11.0227 17.8905 9.5564 18.4592 8.59153 19.5484C7.86599 20.3677 7.09106 21.8733 7.51461 24.3929C7.79571 26.045 8.61053 29.7906 9.69315 32.1618C9.77645 32.339 9.87563 32.5081 9.98944 32.6669C10.3237 35.8593 12.187 39.148 15.0436 41.5346C17.8261 43.8634 21.3228 45.1974 25.1556 45.4441C26.501 45.5285 27.8512 45.4827 29.1879 45.3073C36.0958 44.4224 44.0787 38.8107 44.489 32.1753C44.7967 27.1399 43.2183 23.1109 39.6894 20.0033ZM34.4662 10.8792C35.9097 10.8541 37.5051 11.7274 37.5431 13.1674C37.5849 14.5169 37.4937 16.7454 37.4158 18.2992C36.0882 17.4601 34.6899 16.742 33.2373 16.1536C32.8794 16.0092 32.5011 15.924 32.1167 15.901C32.1167 15.2456 32.1319 14.2663 32.1338 13.2253C32.1471 11.2127 33.6001 10.8907 34.4662 10.8792ZM26.9828 11.3823C28.5023 11.2936 29.7159 12.1052 29.8318 12.5159C29.7982 12.7503 29.7785 12.9865 29.7729 13.2233C29.7729 14.6788 29.7539 16.0128 29.7463 16.5006C29.2701 16.7748 28.8399 17.1242 28.4719 17.5358C27.2031 18.9488 26.8821 20.7378 27.6324 22.2029C28.0464 23.0087 28.7093 23.7933 29.4557 24.5953C28.9866 25.11 28.0198 25.2854 27.1879 25.1736C26.2383 25.0541 25.224 24.549 25.0702 23.6854C25.0607 23.6237 25.0379 23.4772 25.0075 23.269C24.7549 21.3894 24.4035 16.4292 24.3921 14.8003C24.3769 12.0975 25.7843 11.4498 26.9828 11.3823ZM17.2373 16.115C17.7482 15.5733 18.5516 15.2957 19.4386 15.3439C20.4586 15.4094 21.3855 15.9222 21.5013 16.5006C21.8242 18.1025 22.4719 22.3263 22.6732 23.6565C22.696 23.8242 22.7188 23.9726 22.7397 24.0941C22.7408 24.0991 22.7408 24.1044 22.7397 24.1095C22.998 25.4435 22.8195 26.5134 22.2212 27.1939C21.9312 27.5053 21.5755 27.7458 21.1807 27.8974C20.7859 28.049 20.3623 28.1077 19.942 28.0691C19.2069 28.0229 18.3883 27.6836 18.2174 27.0474C17.6305 24.8498 16.6979 20.7629 16.5327 19.0992C16.4016 17.7902 16.6466 16.7492 17.2373 16.115ZM9.8299 23.9957C9.68365 23.1282 9.65136 21.9311 10.3351 21.16C10.8062 20.6279 11.5982 20.3426 12.4529 20.3889C13.3893 20.4486 14.0559 20.8901 14.1623 21.2814C14.6333 23.0319 15.7482 28.2079 15.7596 28.26L15.771 28.3101C15.9951 29.168 16.1281 30.3555 15.4918 31.142C14.9638 31.7955 14.0635 31.9825 13.4025 31.9401C12.6656 31.8919 12.0179 31.57 11.828 31.1536C10.9258 29.1776 10.1452 25.7886 9.8413 23.9957H9.8299ZM28.8764 42.9419C24.1433 43.5491 19.7596 42.3963 16.5308 39.6975C14.7131 38.1764 13.3798 36.2487 12.7321 34.2785C12.903 34.3055 13.0759 34.3305 13.2525 34.3421C14.8726 34.4443 16.394 33.8197 17.3228 32.6727C17.8914 31.9571 18.2325 31.0832 18.3009 30.1665C18.781 30.3471 19.2847 30.4549 19.7957 30.4866C20.5773 30.5477 21.3623 30.4275 22.0912 30.1349C22.8201 29.8423 23.4738 29.385 24.0027 28.7978C24.4546 28.2696 24.7895 27.649 24.9847 26.978C25.5807 27.2792 26.2231 27.4747 26.884 27.5563C27.0151 27.5718 27.1461 27.5853 27.2753 27.593C28.8081 27.6913 30.1908 27.2074 31.074 26.3206C31.6335 26.9018 32.1349 27.5379 32.5706 28.2195C31.1708 30.1222 30.8403 32.5936 30.7682 33.3724C30.7538 33.5293 30.7701 33.6874 30.8159 33.8379C30.8618 33.9884 30.9365 34.1282 31.0356 34.2494C31.1347 34.3706 31.2564 34.4707 31.3936 34.5442C31.5309 34.6177 31.6811 34.663 31.8356 34.6775C31.9901 34.6921 32.1459 34.6756 32.2942 34.629C32.4424 34.5825 32.5802 34.5067 32.6996 34.4061C32.819 34.3055 32.9177 34.182 32.9901 34.0427C33.0625 33.9034 33.1071 33.751 33.1214 33.5941C33.243 32.2659 33.7615 30.3285 34.8195 29.2335C34.9802 29.0673 35.0897 28.8572 35.1346 28.6288C35.1795 28.4004 35.1577 28.1637 35.0721 27.9477C34.4681 26.4055 33.1518 25.0348 31.8774 23.7066C30.9638 22.7427 30.0996 21.8463 29.7121 21.0906C29.376 20.4351 29.7444 19.6563 30.2022 19.1474C30.7207 18.5691 31.6096 18.0813 32.3313 18.3763C39.4918 21.3335 42.5042 25.5476 42.1034 32.0384C41.7976 37.3494 34.865 42.1746 28.8878 42.9419H28.8764Z" fill="white"/>
</g>
<defs>
<clipPath id="clip0_34_73">
<rect width="44" height="45" fill="white" transform="translate(0.523193 0.5)"/>
</clipPath>
</defs>
</svg>
