<svg width="52" height="54" viewBox="0 0 52 54" fill="none" xmlns="http://www.w3.org/2000/svg">
<g clip-path="url(#clip0_34_64)">
<path d="M39.033 36.374C38.8654 35.8767 38.5281 35.4544 38.0803 35.181C36.8268 34.3693 34.688 34.3389 32.4176 34.5217C32.8417 34.0354 33.3653 33.4857 33.809 33.0233C36.2344 30.4715 39.2531 27.2998 37.3693 25.041C37.2326 24.8754 37.0715 24.7315 36.8916 24.6143C35.147 23.4888 32.4684 25.369 30.1249 27.2212C31.7922 24.3726 33.8376 20.6521 31.5125 18.7091C31.4361 18.6454 31.3561 18.5861 31.2729 18.5314C28.9315 17.0166 26.2228 20.4083 23.831 23.4008C23.644 23.6339 23.4424 23.8879 23.2358 24.1418C23.327 23.8607 23.4182 23.5796 23.5036 23.3117C24.5666 20.0376 25.6665 16.6513 23.7388 15.4031C23.7121 15.3845 23.6843 15.3651 23.6554 15.3448C23.3938 15.1888 23.1031 15.088 22.8011 15.0487C22.4991 15.0095 22.1923 15.0325 21.8996 15.1166C20.1268 15.616 18.6971 18.2478 17.4356 20.5696C17.2947 20.8281 17.1419 21.111 16.9849 21.3926C17.5073 18.801 18.145 15.5953 16.3584 14.4387C16.3306 14.4193 16.3016 14.3991 16.2727 14.3789C15.7387 14.0697 14.8459 13.9115 13.6222 14.9082C10.3183 17.5997 5.15249 28.7617 7.167 34.8612C8.30453 38.2846 11.0204 41.7141 14.2541 43.8074C16.3327 45.1768 18.7167 46.013 21.1952 46.2422C25.1517 46.5924 35.535 42.569 38.3274 39.0599C39.0718 38.125 39.311 37.2198 39.033 36.374ZM36.9552 37.9739C34.5893 40.9465 24.701 44.7967 21.3546 44.4986C19.1612 44.2953 17.0518 43.5538 15.2136 42.3399C11.7321 40.0806 9.63428 36.719 8.83956 34.3176C7.34838 29.8111 10.8448 20.8343 13.8326 17.2083C14.905 15.9198 15.4015 15.9149 15.4092 15.9186C16.1995 16.4309 15.5627 19.5786 15.2577 21.0912C14.8518 23.1039 14.6285 24.2133 15.4335 24.7342C15.5665 24.8183 15.7158 24.8731 15.8716 24.8952C16.0274 24.9172 16.1861 24.9059 16.3372 24.862C17.2079 24.6272 17.811 23.5763 18.9859 21.4129C19.9112 19.6958 21.3189 17.1054 22.3756 16.8092C22.4447 16.7884 22.5175 16.7834 22.5888 16.7947C22.66 16.8059 22.7278 16.8331 22.7871 16.8742C23.5804 17.387 22.4011 21.0178 21.8367 22.7611C21.1831 24.768 20.7884 26.0438 20.8903 26.9149C20.9047 27.0404 20.9461 27.1613 21.0115 27.2694C21.0769 27.3775 21.1649 27.4703 21.2694 27.5413C21.3739 27.6123 21.4925 27.66 21.6171 27.6811C21.7417 27.7021 21.8694 27.696 21.9914 27.6633C22.8215 27.4398 23.6666 26.42 25.2081 24.492C26.5444 22.8257 29.3156 19.3518 30.32 20.0017C30.3436 20.0156 30.3661 20.0313 30.3872 20.0487C31.67 21.117 29.7025 24.4645 28.4026 26.6784C27.5928 28.0574 26.9537 29.1452 26.821 29.9472C26.7975 30.0921 26.8106 30.2407 26.8591 30.3792C26.9076 30.5178 26.99 30.6421 27.0988 30.7407C27.2076 30.8393 27.3393 30.9091 27.482 30.9438C27.6247 30.9785 27.7737 30.977 27.9157 30.9394C28.4516 30.7965 29.1049 30.2857 30.4148 29.2372C31.4398 28.4138 32.7175 27.3892 33.8556 26.7223C35.3841 25.8248 35.8594 26.0378 35.9394 26.0885C35.9704 26.1101 35.9982 26.1359 36.022 26.1652C36.8985 27.2205 34.1663 30.0906 32.5333 31.8065C30.819 33.6069 29.9226 34.5891 29.8739 35.5153C29.8673 35.6407 29.8876 35.7661 29.9336 35.883C29.9795 35.9999 30.05 36.1056 30.1402 36.1929C30.2305 36.2803 30.3384 36.3473 30.4567 36.3895C30.575 36.4316 30.701 36.4479 30.8262 36.4373C30.9632 36.4262 31.1475 36.4066 31.3668 36.3839C32.6231 36.2513 35.9632 35.9019 37.125 36.6548C37.2328 36.7094 37.3168 36.8018 37.3608 36.9144C37.4658 37.2428 37.1493 37.7182 36.9552 37.9739Z" fill="white"/>
<path d="M25.9598 31.9971C24.8545 30.6648 19.791 26.9091 16.9683 26.451C16.7691 26.4187 16.5648 26.4559 16.3898 26.5564C16.2148 26.6569 16.0797 26.8145 16.0072 27.0029C15.9347 27.1912 15.9292 27.3988 15.9916 27.5907C16.054 27.7826 16.1806 27.9472 16.3501 28.0568C16.4517 28.1238 16.5665 28.1682 16.6868 28.1868C18.9575 28.5541 23.6543 31.9709 24.6063 33.1203C24.6801 33.2092 24.7706 33.2827 24.8728 33.3366C24.9749 33.3904 25.0867 33.4237 25.2017 33.4344C25.3167 33.4451 25.4326 33.433 25.543 33.3989C25.6533 33.3647 25.7558 33.3092 25.8447 33.2354C25.9336 33.1617 26.007 33.0712 26.0609 32.969C26.1148 32.8669 26.148 32.7551 26.1587 32.6401C26.1694 32.5251 26.1573 32.4091 26.1232 32.2988C26.0891 32.1885 26.0335 32.0859 25.9598 31.9971Z" fill="white"/>
<path d="M27.0532 13.5258C27.0317 13.7239 27.078 13.9235 27.1846 14.0918C27.2912 14.2602 27.4517 14.3875 27.64 14.4528C27.7012 14.4745 27.7647 14.4887 27.8292 14.4953C27.9439 14.5086 28.0601 14.4991 28.1712 14.4674C28.2822 14.4358 28.386 14.3825 28.4764 14.3108C28.5669 14.239 28.6423 14.1501 28.6985 14.0492C28.7546 13.9483 28.7902 13.8373 28.8034 13.7225L29.4402 8.12168C29.4524 8.00661 29.4419 7.89027 29.4091 7.77928C29.3764 7.6683 29.3221 7.56485 29.2494 7.47484C29.1767 7.38483 29.087 7.31003 28.9853 7.2547C28.8837 7.19936 28.7722 7.16459 28.6571 7.15236C28.5421 7.14013 28.4257 7.15069 28.3147 7.18342C28.2037 7.21616 28.1003 7.27043 28.0103 7.34315C27.9203 7.41586 27.8455 7.50559 27.7901 7.60722C27.7348 7.70884 27.7 7.82037 27.6878 7.93543L27.0532 13.5258Z" fill="white"/>
<path d="M37.3135 10.1769C37.2181 10.1118 37.1109 10.0662 36.9979 10.0426C36.8849 10.019 36.7683 10.0179 36.6549 10.0394C36.5414 10.0608 36.4333 10.1044 36.3367 10.1677C36.2402 10.2309 36.157 10.3125 36.0919 10.4079L32.4596 15.7317C32.3304 15.9244 32.2825 16.1604 32.3264 16.3883C32.3702 16.6162 32.5023 16.8176 32.6939 16.9486C32.7584 16.9921 32.8281 17.0275 32.9013 17.0539C33.084 17.1169 33.2822 17.1181 33.4656 17.0575C33.6491 16.9969 33.8075 16.8778 33.9166 16.7183L37.5478 11.3938C37.6774 11.2011 37.7255 10.965 37.6816 10.737C37.6377 10.509 37.5054 10.3076 37.3135 10.1769Z" fill="white"/>
<path d="M37.6013 20.9279C37.8164 21.0034 38.0525 20.9921 38.2594 20.8963L43.1604 18.6308C43.3662 18.5295 43.5243 18.3518 43.6009 18.1355C43.6775 17.9193 43.6665 17.6817 43.5704 17.4734C43.4742 17.2652 43.3004 17.1027 43.0861 17.0209C42.8718 16.939 42.634 16.9441 42.4234 17.0352L37.5213 19.2999C37.4165 19.3483 37.3222 19.417 37.2439 19.5018C37.1655 19.5867 37.1047 19.6862 37.0649 19.7946C37.025 19.903 37.0069 20.0182 37.0116 20.1336C37.0163 20.249 37.0437 20.3624 37.0922 20.4672C37.1412 20.5746 37.2117 20.6708 37.2992 20.75C37.3867 20.8293 37.4895 20.8898 37.6013 20.9279Z" fill="white"/>
</g>
<defs>
<clipPath id="clip0_34_64">
<rect width="34.4044" height="40.7909" fill="white" transform="translate(23.358 0.429077) rotate(34.9338)"/>
</clipPath>
</defs>
</svg>
