<svg width="40" height="40" viewBox="0 0 40 40" fill="none" xmlns="http://www.w3.org/2000/svg">
<path d="M30.2083 3.33333H9.79166C8.96313 3.33421 8.16879 3.66373 7.58293 4.24959C6.99707 4.83545 6.66755 5.6298 6.66666 6.45833V26.875C6.66666 28.5983 8.06833 30 9.79166 30H18.3333V33.3333H11.6667V36.6667H28.3333V33.3333H21.6667V30H30.2083C31.0369 29.9991 31.8312 29.6696 32.4171 29.0837C33.0029 28.4979 33.3324 27.7035 33.3333 26.875V6.45833C33.3324 5.6298 33.0029 4.83545 32.4171 4.24959C31.8312 3.66373 31.0369 3.33421 30.2083 3.33333ZM30 26.6667H10V6.66666H30V26.6667Z" fill="white"/>
<path d="M20 23.3333C23.6767 23.3333 26.6667 20.3433 26.6667 16.6667C26.6667 12.99 23.6767 10 20 10C16.3233 10 13.3333 12.99 13.3333 16.6667C13.3333 20.3433 16.3233 23.3333 20 23.3333ZM20 13.3333C21.8383 13.3333 23.3333 14.8283 23.3333 16.6667C23.3333 18.505 21.8383 20 20 20C18.1617 20 16.6667 18.505 16.6667 16.6667C16.6667 14.8283 18.1617 13.3333 20 13.3333Z" fill="white"/>
</svg>
